<svg width="32" height="11" viewBox="0 0 32 11" fill="none" xmlns="http://www.w3.org/2000/svg">
<path d="M31.4256 9.24717C30.4729 6.80671 29.2853 3.77898 26.7796 2.09546C22.0553 -1.08888 16.2608 2.64358 13.977 4.39236L13.5202 4.74472C12.2021 5.77572 10.8318 6.83281 9.42233 7.00247C8.62625 7.09383 7.76491 6.91112 6.81222 6.71536C6.3946 6.624 5.96393 6.5457 5.52022 6.4674C3.28857 6.14113 1.52674 6.66316 0.404395 7.96821L0.0128784 8.43803L1.86606 10.239L2.32283 9.70394C3.02756 8.88175 4.41092 8.94701 5.1809 9.06446C5.57242 9.11666 5.96393 9.20802 6.3946 9.28632C7.4517 9.50818 8.54795 9.73004 9.73555 9.59953C11.8497 9.35157 13.4941 8.07262 15.0863 6.83281L15.53 6.48045C17.3832 5.05794 22.0422 1.99105 25.4223 4.2749C27.2755 5.52776 28.2934 8.11177 29.1026 10.1999L29.2592 10.6175H32.0129L31.4386 9.23412L31.4256 9.24717Z" fill="#ffffff"/>
</svg>