<svg width="894" height="195" viewBox="0 0 894 195" fill="none" xmlns="http://www.w3.org/2000/svg">
<path d="M326.26 191.026C321.932 188.494 318.6 184.924 316.242 180.325C313.883 175.716 312.715 170.327 312.715 164.138C312.715 157.949 313.905 152.539 316.296 147.897C318.687 143.255 322.03 139.684 326.314 137.195C330.598 134.696 335.52 133.451 341.081 133.451C346.642 133.451 351.077 134.555 355.264 136.773C359.451 138.992 362.729 142.184 365.119 146.371C367.51 150.558 368.7 155.568 368.7 161.4V167.514H324.096C324.312 171.03 325.113 174.179 326.519 176.949C327.926 179.73 329.905 181.894 332.48 183.431C335.044 184.978 337.976 185.746 341.286 185.746C345.084 185.746 348.329 184.816 351.045 182.954C353.749 181.093 355.632 178.54 356.681 175.305H368.073C367.294 179.102 365.682 182.478 363.226 185.432C360.77 188.386 357.633 190.691 353.847 192.336C350.049 193.991 345.863 194.814 341.297 194.814C335.607 194.814 330.598 193.548 326.27 191.016L326.26 191.026ZM355.675 150.277C354.377 147.778 352.494 145.862 350.038 144.532C347.583 143.201 344.694 142.53 341.395 142.53C338.095 142.53 335.12 143.233 332.697 144.64C330.273 146.046 328.358 147.983 326.952 150.439C325.546 152.906 324.637 155.709 324.215 158.879H357.644C357.644 155.644 356.995 152.777 355.697 150.288L355.675 150.277ZM344.132 112.676H356.151L345.603 128.496H335.693L344.132 112.676Z" fill="#3444A5"/>
<path d="M389.678 191.242C385.6 188.851 382.332 185.334 379.877 180.693C377.41 176.051 376.188 170.532 376.188 164.137C376.188 157.743 377.421 152.224 379.877 147.582C382.332 142.94 385.6 139.424 389.678 137.033C393.757 134.641 398.149 133.451 402.855 133.451C407.561 133.451 411.78 134.652 415.513 137.033C419.234 139.424 421.982 142.659 423.735 146.738H423.951C423.81 145.332 423.735 143.254 423.735 140.517V110.782H434.488V193.147H423.843V187.877C423.843 185.14 423.875 183.03 423.951 181.547H423.735C421.982 185.627 419.234 188.862 415.513 191.253C411.791 193.644 407.572 194.835 402.855 194.835C398.138 194.835 393.757 193.634 389.678 191.253V191.242ZM415.199 183.073C417.936 181.277 420.067 178.745 421.582 175.477C423.096 172.209 423.854 168.433 423.854 164.137C423.854 159.842 423.096 156.065 421.582 152.798C420.067 149.53 417.947 146.998 415.199 145.202C412.462 143.406 409.292 142.508 405.711 142.508C402.13 142.508 398.95 143.406 396.169 145.202C393.389 146.998 391.247 149.53 389.732 152.798C388.218 156.065 387.46 159.842 387.46 164.137C387.46 168.433 388.218 172.209 389.732 175.477C391.247 178.745 393.389 181.277 396.169 183.073C398.95 184.869 402.13 185.767 405.711 185.767C409.292 185.767 412.462 184.869 415.199 183.073Z" fill="#3444A5"/>
<path d="M449.037 114.05H460.007V124.805H449.037V114.05ZM449.145 135.138H459.899V193.146H449.145V135.138Z" fill="#3444A5"/>
<path d="M467.072 135.141H507.349V144.424H467.072V135.141ZM482.467 189.242C479.871 186.645 478.561 182.815 478.561 177.751V119.332H489.315V177.015C489.315 179.407 489.899 181.149 491.057 182.241C492.214 183.334 493.956 183.875 496.282 183.875H507.879V193.159H494.064C488.936 193.159 485.063 191.861 482.467 189.253V189.242Z" fill="#3444A5"/>
<path d="M524.594 191.025C520.266 188.493 516.934 184.922 514.576 180.324C512.217 175.714 511.049 170.326 511.049 164.137C511.049 157.947 512.239 152.537 514.63 147.895C517.021 143.253 520.364 139.683 524.648 137.194C528.932 134.695 533.854 133.45 539.415 133.45C544.975 133.45 549.411 134.554 553.598 136.772C557.785 138.99 561.063 142.182 563.453 146.37C565.844 150.557 567.034 155.567 567.034 161.399V167.513H522.43C522.646 171.029 523.447 174.178 524.853 176.948C526.26 179.729 528.239 181.893 530.814 183.429C533.378 184.977 536.31 185.745 539.62 185.745C543.418 185.745 546.663 184.814 549.379 182.953C552.083 181.092 553.966 178.538 555.015 175.303H566.407C565.628 179.101 564.016 182.477 561.56 185.431C559.104 188.385 555.967 190.69 552.181 192.334C548.383 193.99 544.197 194.812 539.631 194.812C533.941 194.812 528.932 193.546 524.604 191.014L524.594 191.025ZM554.009 150.276C552.711 147.776 550.828 145.861 548.373 144.53C545.917 143.199 543.028 142.528 539.729 142.528C536.429 142.528 533.454 143.232 531.031 144.638C528.607 146.045 526.692 147.982 525.286 150.438C523.88 152.905 522.971 155.708 522.549 158.878H555.978C555.978 155.643 555.329 152.775 554.031 150.287L554.009 150.276Z" fill="#3444A5"/>
<path d="M577.148 135.138H587.696V144.952H587.913C589.384 141.577 591.202 139.099 593.344 137.519C595.486 135.939 598.601 135.149 602.68 135.149H608.273V144.433H601.101C596.535 144.433 593.192 145.732 591.083 148.339C588.973 150.936 587.924 154.918 587.924 160.252V193.157H577.17V135.149L577.148 135.138Z" fill="#3444A5"/>
<path d="M615.641 135.138H626.189V144.952H626.405C627.876 141.577 629.694 139.099 631.836 137.519C633.978 135.939 637.094 135.149 641.172 135.149H646.765V144.433H639.593C635.027 144.433 631.684 145.732 629.575 148.339C627.465 150.936 626.416 154.918 626.416 160.252V193.157H615.662V135.149L615.641 135.138Z" fill="#3444A5"/>
<path d="M681.333 191.46C677.817 193.71 673.706 194.836 669 194.836C665.268 194.836 661.903 194.132 658.874 192.726C655.845 191.319 653.476 189.209 651.756 186.396C650.035 183.583 649.17 180.25 649.17 176.376C649.17 170.263 651.258 165.686 655.445 162.667C659.631 159.648 664.878 158.133 671.207 158.133H680.381C683.259 158.133 685.423 157.549 686.861 156.391C688.3 155.233 689.025 153.556 689.025 151.381C689.025 148.568 687.868 146.393 685.542 144.846C683.226 143.299 680.273 142.53 676.681 142.53C672.462 142.53 669.076 143.515 666.501 145.484C663.937 147.454 662.552 150.267 662.336 153.924H651.366C651.788 147.529 654.103 142.52 658.322 138.895C662.541 135.27 668.622 133.463 676.562 133.463C681.907 133.463 686.299 134.307 689.739 135.995C693.179 137.683 695.711 139.998 697.334 142.952C698.946 145.906 699.757 149.39 699.757 153.394V180.185C699.757 181.516 700.038 182.468 700.601 183.031C701.163 183.593 702.148 183.875 703.554 183.875H706.086V193.159H698.913C695.96 193.159 693.655 192.39 692.011 190.843C690.356 189.296 689.534 187.186 689.534 184.513V181.559H689.317C687.489 185.92 684.817 189.22 681.301 191.471L681.333 191.46ZM680.23 183.648C682.869 182.241 684.99 180.109 686.613 177.264C688.225 174.418 689.036 170.923 689.036 166.768V160.654H688.819C687.835 162.699 686.375 164.203 684.449 165.188C682.512 166.173 679.894 166.66 676.595 166.66L672.062 166.768C668.124 166.844 665.203 167.753 663.31 169.505C661.416 171.258 660.464 173.476 660.464 176.149C660.464 178.962 661.373 181.267 663.201 183.052C665.03 184.849 667.843 185.747 671.64 185.747C674.734 185.747 677.601 185.043 680.23 183.637V183.648Z" fill="#3444A5"/>
<path d="M715.182 135.14H725.73V145.365H725.946C727.699 141.567 730.176 138.635 733.378 136.557C736.58 134.48 740.324 133.441 744.608 133.441C748.892 133.441 752.202 134.372 755.156 136.233C758.109 138.094 760.359 140.853 761.906 144.51C763.453 148.168 764.222 152.593 764.222 157.798V193.126H753.468V158.955C753.468 153.329 752.375 149.195 750.201 146.566C748.026 143.926 744.997 142.617 741.135 142.617C738.398 142.617 735.877 143.266 733.595 144.564C731.312 145.863 729.462 147.908 728.056 150.678C726.649 153.459 725.946 156.921 725.946 161.065V193.126H715.192V135.118L715.182 135.14Z" fill="#3444A5"/>
<path d="M788.088 191.026C783.76 188.494 780.428 184.924 778.07 180.325C775.711 175.716 774.543 170.327 774.543 164.138C774.543 157.949 775.733 152.539 778.124 147.897C780.515 143.255 783.858 139.684 788.142 137.195C792.426 134.696 797.348 133.451 802.909 133.451C808.47 133.451 812.905 134.555 817.092 136.773C821.279 138.992 824.557 142.184 826.948 146.371C829.338 150.558 830.528 155.568 830.528 161.4V167.514H785.924C786.14 171.03 786.941 174.179 788.347 176.949C789.754 179.73 791.733 181.894 794.308 183.431C796.872 184.978 799.804 185.746 803.114 185.746C806.912 185.746 810.157 184.816 812.873 182.954C815.577 181.093 817.46 178.54 818.509 175.305H829.901C829.122 179.102 827.51 182.478 825.054 185.432C822.599 188.386 819.461 190.691 815.675 192.336C811.877 193.991 807.691 194.814 803.125 194.814C797.435 194.814 792.426 193.548 788.098 191.016L788.088 191.026ZM817.503 150.277C816.205 147.778 814.322 145.862 811.867 144.532C809.411 143.201 806.522 142.53 803.223 142.53C799.923 142.53 796.948 143.233 794.525 144.64C792.101 146.046 790.186 147.983 788.78 150.439C787.374 152.906 786.465 155.709 786.043 158.879H819.472C819.472 155.644 818.823 152.777 817.525 150.288L817.503 150.277ZM805.96 112.676H817.979L807.431 128.496H797.521L805.96 112.676Z" fill="#3444A5"/>
<path d="M851.56 191.025C847.233 188.493 843.901 184.922 841.542 180.324C839.184 175.714 838.016 170.326 838.016 164.137C838.016 157.947 839.206 152.537 841.597 147.895C843.987 143.253 847.33 139.683 851.614 137.194C855.899 134.695 860.821 133.45 866.382 133.45C871.942 133.45 876.378 134.554 880.565 136.772C884.751 138.99 888.029 142.182 890.42 146.37C892.811 150.557 894.001 155.567 894.001 161.399V167.513H849.397C849.613 171.029 850.414 174.178 851.82 176.948C853.226 179.729 855.206 181.893 857.781 183.429C860.345 184.977 863.277 185.745 866.587 185.745C870.384 185.745 873.63 184.814 876.345 182.953C879.05 181.092 880.932 178.538 881.982 175.303H893.374C892.595 179.101 890.983 182.477 888.527 185.431C886.071 188.385 882.934 190.69 879.147 192.334C875.35 193.99 871.163 194.812 866.598 194.812C860.907 194.812 855.898 193.546 851.571 191.014L851.56 191.025ZM880.986 150.276C879.688 147.776 877.806 145.861 875.35 144.53C872.894 143.199 870.006 142.528 866.706 142.528C863.407 142.528 860.431 143.232 858.008 144.638C855.585 146.045 853.67 147.982 852.264 150.438C850.857 152.905 849.948 155.708 849.526 158.878H882.955C882.955 155.643 882.306 152.775 881.008 150.287L880.986 150.276Z" fill="#3444A5"/>
<path d="M18.2484 72.5869C12.8175 69.4599 8.59831 64.9911 5.56914 59.1806C2.53997 53.3701 1.02539 46.6398 1.02539 38.9898C1.02539 31.3399 2.48588 24.5339 5.40686 18.7991C8.32785 13.0535 12.4821 8.63884 17.8805 5.54423C23.2681 2.44961 29.6835 0.902308 37.1374 0.902308C43.8124 0.902308 49.6219 2.21157 54.5659 4.81927C59.5099 7.42696 63.3505 10.976 66.0984 15.4665C68.8463 19.9569 70.4582 24.9451 70.945 30.4418H59.4666C59.1854 26.8278 58.1468 23.4843 56.3401 20.4222C54.5334 17.36 51.9911 14.9254 48.7239 13.1185C45.4568 11.3115 41.5946 10.4026 37.1374 10.4026C32.1284 10.4026 27.7794 11.5495 24.0903 13.8434C20.4012 16.1373 17.5884 19.4267 15.6411 23.7007C13.6938 27.9748 12.7201 33.0819 12.7201 38.9898C12.7201 44.8977 13.7803 49.9292 15.9008 54.279C18.0212 58.6287 20.9205 61.9722 24.6096 64.2986C28.2987 66.6358 32.4746 67.7936 37.1266 67.7936C41.4431 67.7936 45.1971 66.8522 48.3994 64.9803C51.6016 63.0975 54.1548 60.7387 56.0697 57.8821C57.9845 55.0256 59.1096 52.0392 59.4558 48.9013H70.9342C70.3067 54.1167 68.5866 58.8668 65.7738 63.1516C62.961 67.4257 59.0988 70.8557 54.1872 73.4309C49.2865 76.0062 43.596 77.2938 37.1266 77.2938C29.9647 77.2938 23.6684 75.7248 18.2375 72.5978L18.2484 72.5869Z" fill="#3444A5"/>
<path d="M110.483 73.9393C107 76.1683 102.932 77.2828 98.2799 77.2828C94.5908 77.2828 91.2479 76.5903 88.262 75.1945C85.2653 73.7987 82.9177 71.7212 81.2192 68.9295C79.5099 66.1487 78.666 62.8377 78.666 59.0181C78.666 52.9696 80.7323 48.4467 84.8758 45.4494C89.0085 42.463 94.2121 40.959 100.476 40.959H109.553C112.409 40.959 114.54 40.3855 115.968 39.2386C117.396 38.0916 118.11 36.4361 118.11 34.2829C118.11 31.502 116.963 29.338 114.67 27.8123C112.376 26.2866 109.455 25.5184 105.907 25.5184C101.731 25.5184 98.3772 26.4922 95.8349 28.4399C93.2926 30.3875 91.9186 33.1684 91.7131 36.7932H80.8622C81.2841 30.4633 83.5776 25.5076 87.7535 21.926C91.9294 18.3445 97.9445 16.5483 105.81 16.5483C111.1 16.5483 115.449 17.3815 118.857 19.0478C122.264 20.7142 124.763 23.0189 126.365 25.9404C127.966 28.8619 128.766 32.3027 128.766 36.2738V62.7836C128.766 64.1037 129.048 65.045 129.599 65.5969C130.151 66.1595 131.125 66.43 132.52 66.43H135.019V75.6165H127.922C125.001 75.6165 122.719 74.8483 121.085 73.3226C119.452 71.7969 118.629 69.7086 118.629 67.0576V64.1361H118.424C116.617 68.4534 113.967 71.7212 110.494 73.9502L110.483 73.9393ZM109.39 66.2244C111.998 64.8286 114.107 62.7295 115.708 59.9054C117.31 57.0921 118.11 53.6296 118.11 49.5179V43.4693H117.905C116.931 45.4927 115.492 46.9859 113.577 47.9597C111.662 48.9336 109.077 49.4205 105.799 49.4205L101.309 49.5287C97.4144 49.5936 94.5259 50.5025 92.6435 52.2446C90.761 53.9867 89.8307 56.1724 89.8307 58.8233C89.8307 61.6042 90.7394 63.8873 92.5461 65.6618C94.3528 67.4363 97.1331 68.3236 100.898 68.3236C103.96 68.3236 106.794 67.6311 109.401 66.2353L109.39 66.2244Z" fill="#3444A5"/>
<path d="M143.978 18.2147H154.407V27.8123H154.612C156.214 24.5446 158.442 21.8503 161.287 19.7295C164.143 17.6087 167.616 16.5483 171.716 16.5483C175.817 16.5483 179.473 17.6628 182.459 19.8918C185.445 22.1208 187.576 25.2479 188.82 29.2839H189.026C190.551 25.3885 192.866 22.2939 195.961 20C199.055 17.7061 202.755 16.5592 207.071 16.5592C210.901 16.5592 214.222 17.4681 217.035 19.2751C219.848 21.0821 222.022 23.6789 223.558 27.0549C225.084 30.4308 225.852 34.4127 225.852 39.0005V75.6273H215.207V40.1475C215.207 35.2783 214.2 31.6427 212.177 29.2406C210.154 26.8385 207.406 25.6374 203.934 25.6374C201.435 25.6374 199.13 26.2758 197.042 27.5634C194.954 28.8511 193.288 30.7662 192.033 33.2982C190.779 35.841 190.151 38.9572 190.151 42.6361V75.6165H179.506V40.1367C179.506 35.2675 178.5 31.6319 176.477 29.2298C174.453 26.8277 171.749 25.6266 168.341 25.6266C165.766 25.6266 163.44 26.265 161.352 27.5526C159.264 28.8402 157.609 30.7662 156.397 33.3415C155.175 35.9167 154.569 39.0113 154.569 42.6253V75.6057H143.924V18.2147H143.978Z" fill="#3444A5"/>
<path d="M238.207 18.2147H248.744V23.5383C248.744 26.2542 248.712 28.31 248.636 29.695H248.842C250.508 25.6591 253.191 22.4562 256.88 20.0974C260.569 17.7278 264.777 16.5483 269.505 16.5483C274.232 16.5483 278.408 17.7278 282.444 20.0974C286.479 22.4671 289.724 25.9404 292.202 30.5282C294.669 35.116 295.902 40.5803 295.902 46.9102C295.902 53.2401 294.669 58.7043 292.202 63.2921C289.735 67.88 286.479 71.3641 282.444 73.7229C278.408 76.0926 274.092 77.272 269.505 77.272C264.918 77.272 260.569 76.0926 256.88 73.7229C253.191 71.3533 250.518 68.1613 248.842 64.1253H248.636C248.701 65.586 248.744 67.6744 248.744 70.3903V96.4781H238.207V18.2147ZM276.082 65.651C278.798 63.8764 280.897 61.3769 282.4 58.1417C283.893 54.9064 284.64 51.1626 284.64 46.921C284.64 42.6794 283.893 38.9356 282.4 35.7003C280.907 32.465 278.798 29.9655 276.082 28.191C273.367 26.4165 270.208 25.5292 266.584 25.5292C262.96 25.5292 259.909 26.4165 257.193 28.191C254.478 29.9655 252.39 32.465 250.93 35.7003C249.469 38.9356 248.733 42.6794 248.733 46.921C248.733 51.1626 249.469 54.9064 250.93 58.1417C252.39 61.3769 254.478 63.8764 257.193 65.651C259.909 67.4255 263.035 68.3128 266.584 68.3128C270.132 68.3128 273.367 67.4255 276.082 65.651Z" fill="#3444A5"/>
<path d="M314.953 74.5237C312 72.6843 309.739 69.9467 308.17 66.3327C306.601 62.7187 305.822 58.3365 305.822 53.186V18.2148H316.468V52.0283C316.468 57.6657 317.549 61.7666 319.702 64.3418C321.855 66.917 324.852 68.2047 328.682 68.2047C331.462 68.2047 333.983 67.5663 336.244 66.2786C338.505 64.991 340.311 62.9893 341.675 60.2734C343.027 57.5574 343.708 54.1166 343.708 49.9399V18.2148H354.354V75.6166H343.925V65.4887H343.719C342.053 69.3841 339.652 72.3272 336.514 74.3073C333.388 76.2874 329.731 77.2829 325.555 77.2829C321.379 77.2829 317.917 76.3632 314.964 74.5129L314.953 74.5237Z" fill="#3444A5"/>
<path d="M375.786 74.7843C372.205 73.118 369.436 70.7159 367.489 67.578C365.541 64.4509 364.459 60.7937 364.254 56.617H375.31C375.516 60.5881 376.793 63.5204 379.118 65.4356C381.444 67.3508 384.56 68.303 388.455 68.303C390.965 68.303 393.15 67.9243 395.032 67.156C396.915 66.3878 398.354 65.2625 399.36 63.7693C400.366 62.276 400.874 60.5556 400.874 58.608C400.874 56.1085 400.009 54.1716 398.267 52.8191C396.525 51.4665 393.853 50.7849 390.229 50.7849H383.965C378.188 50.7849 373.634 49.3241 370.291 46.4026C366.948 43.4811 365.282 39.5858 365.282 34.7167C365.282 31.2434 366.19 28.1271 367.997 25.3787C369.804 22.6304 372.4 20.4771 375.776 18.9082C379.151 17.3392 383.165 16.5602 387.827 16.5602C392.49 16.5602 396.753 17.3933 400.193 19.0597C403.633 20.726 406.262 23.0957 408.069 26.1578C409.875 29.22 410.849 32.769 410.99 36.805H400.031C399.825 33.191 398.711 30.4102 396.688 28.4517C394.665 26.5041 391.711 25.5302 387.816 25.5302C384.333 25.5302 381.574 26.3093 379.519 27.8782C377.463 29.4472 376.435 31.5788 376.435 34.2947C376.435 36.6643 377.236 38.4389 378.837 39.6183C380.438 40.7977 382.699 41.3928 385.62 41.3928H392.404C398.732 41.3928 403.59 42.9726 406.954 46.1429C410.33 49.3133 412.017 53.3601 412.017 58.305C412.017 61.9947 411.076 65.2625 409.205 68.119C407.322 70.9756 404.618 73.2154 401.069 74.8493C397.521 76.4831 393.312 77.3055 388.444 77.3055C383.576 77.3055 379.346 76.4723 375.765 74.806L375.786 74.7843Z" fill="#3444A5"/>
<path d="M292.278 193.644C283.57 172.198 272.794 145.959 252.51 132.737C214.732 108.11 164.458 139.813 144.607 154.594C143.092 155.719 141.577 156.855 140.052 158.002C124.625 169.612 108.668 181.612 89.1512 183.809C78.1596 185.053 67.5251 182.911 57.2367 180.855C52.9418 179.989 48.8957 179.178 44.7955 178.593C35.708 177.284 19.1017 176.646 9.91684 187.055L0.65625 178.366C13.0542 164.321 32.4409 163.78 46.5265 165.804C50.962 166.442 55.3651 167.329 59.6276 168.184C69.4183 170.153 78.6789 172.004 87.788 170.987C103.994 169.169 118.567 158.197 132.674 147.582C134.21 146.424 135.746 145.267 137.282 144.131C159.201 127.814 214.97 92.9937 259.206 121.83C282.823 137.227 294.442 165.879 303.789 188.905L305.823 193.688" fill="#3444A5"/>
<path d="M785.915 73.0738C782.432 75.3028 778.342 76.4173 773.68 76.4173C769.98 76.4173 766.637 75.714 763.64 74.329C760.643 72.9332 758.285 70.8449 756.576 68.0532C754.866 65.2616 754.012 61.9506 754.012 58.1093C754.012 52.0391 756.089 47.5054 760.232 44.5082C764.376 41.511 769.59 40.0069 775.865 40.0069H784.963C787.819 40.0069 789.972 39.4335 791.4 38.2865C792.828 37.1396 793.542 35.484 793.542 33.32C793.542 30.5283 792.396 28.3643 790.091 26.8386C787.787 25.3021 784.866 24.5339 781.307 24.5339C777.12 24.5339 773.755 25.5077 771.213 27.4662C768.671 29.4138 767.286 32.2055 767.08 35.8303H756.208C756.63 29.4896 758.923 24.5122 763.11 20.9199C767.297 17.3275 773.323 15.5314 781.209 15.5314C786.51 15.5314 790.87 16.3645 794.278 18.0417C797.697 19.7188 800.206 22.0127 801.808 24.945C803.409 27.8774 804.209 31.329 804.209 35.3001V61.8748C804.209 63.2057 804.491 64.1471 805.042 64.6989C805.605 65.2616 806.579 65.5321 807.974 65.5321H810.484V74.7402H803.376C800.445 74.7402 798.162 73.9719 796.528 72.4354C794.884 70.899 794.072 68.8106 794.072 66.1597V63.2274H793.867C792.049 67.5555 789.399 70.834 785.915 73.063V73.0738ZM784.812 65.3265C787.43 63.9307 789.54 61.8207 791.141 58.9966C792.742 56.1725 793.553 52.6992 793.553 48.5875V42.5173H793.348C792.374 44.5407 790.924 46.0447 789.009 47.0185C787.095 47.9923 784.498 48.4793 781.22 48.4793L776.72 48.5875C772.814 48.6632 769.926 49.5613 768.043 51.3034C766.161 53.0454 765.22 55.242 765.22 57.8929C765.22 60.6846 766.128 62.9677 767.935 64.7422C769.742 66.5167 772.533 67.4148 776.298 67.4148C779.37 67.4148 782.205 66.7223 784.823 65.3265H784.812Z" fill="#3444A5"/>
<path d="M819.484 17.2086H829.946V26.9361H830.151C831.612 23.5926 833.408 21.1255 835.539 19.5566C837.659 17.9877 840.753 17.1978 844.8 17.1978H850.339V26.4059H843.231C838.698 26.4059 835.388 27.6935 833.289 30.2795C831.201 32.8656 830.151 36.8042 830.151 42.0953V74.7403H819.484V17.2086Z" fill="#3444A5"/>
<path d="M853.377 17.2093H893.329V26.4174H853.377V17.2093ZM868.642 70.8781C866.056 68.3029 864.769 64.4942 864.769 59.4735V1.51987H875.436V58.7486C875.436 61.1182 876.009 62.8495 877.167 63.9315C878.313 65.0135 880.044 65.5545 882.349 65.5545H893.86V74.7626H880.153C875.057 74.7626 871.227 73.475 868.653 70.889L868.642 70.8781Z" fill="#3444A5"/>
</svg>
