<svg width="351" height="77" viewBox="0 0 351 77" fill="none" xmlns="http://www.w3.org/2000/svg">
<path d="M127.931 74.8317C126.231 73.8369 124.922 72.4339 123.995 70.6271C123.068 68.816 122.609 66.6989 122.609 64.2671C122.609 61.8353 123.077 59.7096 124.016 57.8858C124.956 56.062 126.269 54.659 127.952 53.6812C129.636 52.6991 131.57 52.2102 133.755 52.2102C135.939 52.2102 137.682 52.6439 139.327 53.5154C140.972 54.3869 142.26 55.6411 143.199 57.2863C144.139 58.9316 144.606 60.9 144.606 63.1915V65.5935H127.081C127.166 66.9752 127.481 68.2123 128.033 69.3007C128.586 70.3933 129.364 71.2436 130.375 71.8472C131.383 72.4552 132.535 72.757 133.835 72.757C135.327 72.757 136.602 72.3914 137.669 71.6602C138.732 70.929 139.472 69.9256 139.884 68.6545H144.36C144.054 70.1467 143.42 71.4731 142.456 72.6338C141.491 73.7944 140.258 74.6999 138.77 75.3461C137.278 75.9966 135.633 76.3197 133.84 76.3197C131.604 76.3197 129.636 75.8223 127.935 74.8275L127.931 74.8317ZM139.489 58.8211C138.979 57.839 138.239 57.0865 137.274 56.5636C136.309 56.0407 135.174 55.7771 133.878 55.7771C132.581 55.7771 131.412 56.0535 130.46 56.6061C129.508 57.1588 128.756 57.9198 128.203 58.8849C127.651 59.8542 127.294 60.9553 127.128 62.2009H140.262C140.262 60.9298 140.007 59.8031 139.497 58.8253L139.489 58.8211ZM134.953 44.0476H139.676L135.531 50.2631H131.638L134.953 44.0476Z" fill="white"/>
<path d="M152.848 74.9165C151.246 73.977 149.962 72.5953 148.997 70.7714C148.028 68.9476 147.548 66.7794 147.548 64.2669C147.548 61.7543 148.032 59.5861 148.997 57.7623C149.962 55.9384 151.246 54.5568 152.848 53.6172C154.451 52.6777 156.177 52.21 158.026 52.21C159.875 52.21 161.532 52.6819 162.999 53.6172C164.461 54.5568 165.541 55.8279 166.229 57.4307H166.314C166.259 56.878 166.229 56.0617 166.229 54.9861V43.3034H170.454V75.6648H166.272V73.5944C166.272 72.5188 166.285 71.6897 166.314 71.1073H166.229C165.541 72.7101 164.461 73.9812 162.999 74.9208C161.537 75.8603 159.879 76.328 158.026 76.328C156.172 76.328 154.451 75.8561 152.848 74.9208V74.9165ZM162.876 71.7067C163.951 71.001 164.788 70.0062 165.383 68.7223C165.979 67.4384 166.276 65.9547 166.276 64.2669C166.276 62.5791 165.979 61.0954 165.383 59.8114C164.788 58.5275 163.955 57.5327 162.876 56.827C161.8 56.1213 160.555 55.7684 159.148 55.7684C157.741 55.7684 156.491 56.1213 155.399 56.827C154.306 57.5327 153.465 58.5275 152.87 59.8114C152.275 61.0954 151.977 62.5791 151.977 64.2669C151.977 65.9547 152.275 67.4384 152.87 68.7223C153.465 70.0062 154.306 71.001 155.399 71.7067C156.491 72.4125 157.741 72.7653 159.148 72.7653C160.555 72.7653 161.8 72.4125 162.876 71.7067Z" fill="white"/>
<path d="M176.171 44.5871H180.481V48.8129H176.171V44.5871ZM176.214 52.873H180.439V75.6645H176.214V52.873Z" fill="white"/>
<path d="M183.257 52.8738H199.082V56.5215H183.257V52.8738ZM189.305 74.1306C188.285 73.1103 187.771 71.6053 187.771 69.6157V46.6626H191.996V69.3266C191.996 70.2662 192.226 70.9506 192.68 71.38C193.135 71.8094 193.82 72.022 194.734 72.022H199.29V75.6696H193.862C191.847 75.6696 190.326 75.1595 189.305 74.1349V74.1306Z" fill="white"/>
<path d="M205.857 74.8311C204.157 73.8363 202.848 72.4334 201.921 70.6266C200.995 68.8155 200.536 66.6983 200.536 64.2665C200.536 61.8347 201.003 59.7091 201.943 57.8852C202.882 56.0614 204.195 54.6584 205.879 53.6806C207.562 52.6986 209.496 52.2097 211.681 52.2097C213.866 52.2097 215.608 52.6433 217.253 53.5148C218.898 54.3864 220.186 55.6405 221.126 57.2858C222.065 58.9311 222.533 60.8994 222.533 63.1909V65.5929H205.007C205.092 66.9746 205.407 68.2118 205.959 69.3001C206.512 70.3927 207.29 71.243 208.302 71.8467C209.309 72.4546 210.461 72.7565 211.762 72.7565C213.254 72.7565 214.529 72.3909 215.596 71.6596C216.658 70.9284 217.398 69.9251 217.81 68.6539H222.286C221.98 70.1461 221.347 71.4726 220.382 72.6332C219.417 73.7938 218.184 74.6994 216.697 75.3456C215.205 75.996 213.56 76.3191 211.766 76.3191C209.53 76.3191 207.562 75.8217 205.862 74.8269L205.857 74.8311ZM217.415 58.8205C216.905 57.8385 216.165 57.086 215.2 56.5631C214.235 56.0401 213.1 55.7765 211.804 55.7765C210.508 55.7765 209.339 56.0529 208.387 56.6056C207.434 57.1582 206.682 57.9192 206.129 58.8843C205.577 59.8536 205.22 60.9547 205.054 62.2004H218.188C218.188 60.9292 217.933 59.8026 217.423 58.8248L217.415 58.8205Z" fill="white"/>
<path d="M226.507 52.8729H230.651V56.7289H230.736C231.314 55.4025 232.028 54.4289 232.87 53.8082C233.712 53.1875 234.936 52.8772 236.538 52.8772H238.736V56.5248H235.918C234.124 56.5248 232.811 57.035 231.982 58.0596C231.153 59.0799 230.74 60.6444 230.74 62.7403V75.6687H226.515V52.8772L226.507 52.8729Z" fill="white"/>
<path d="M241.63 52.8729H245.775V56.7289H245.86C246.438 55.4025 247.152 54.4289 247.994 53.8082C248.835 53.1875 250.059 52.8772 251.662 52.8772H253.859V56.5248H251.041C249.247 56.5248 247.934 57.035 247.105 58.0596C246.276 59.0799 245.864 60.6444 245.864 62.7403V75.6687H241.639V52.8772L241.63 52.8729Z" fill="white"/>
<path d="M267.441 75.0019C266.059 75.8862 264.444 76.3284 262.595 76.3284C261.129 76.3284 259.807 76.052 258.617 75.4994C257.426 74.9467 256.495 74.1177 255.82 73.0123C255.144 71.907 254.804 70.5975 254.804 69.0756C254.804 66.6735 255.624 64.8752 257.269 63.6891C258.914 62.5029 260.976 61.9078 263.462 61.9078H267.067C268.197 61.9078 269.048 61.6782 269.613 61.2233C270.178 60.7684 270.463 60.1094 270.463 59.2549C270.463 58.1496 270.008 57.295 269.094 56.6871C268.185 56.0791 267.024 55.7773 265.613 55.7773C263.955 55.7773 262.625 56.1642 261.613 56.9379C260.606 57.7117 260.062 58.817 259.977 60.254H255.667C255.832 57.7414 256.742 55.773 258.4 54.3488C260.057 52.9246 262.446 52.2147 265.566 52.2147C267.666 52.2147 269.392 52.5463 270.744 53.2095C272.095 53.8727 273.09 54.7825 273.727 55.9431C274.361 57.1037 274.68 58.4727 274.68 60.0457V70.572C274.68 71.0949 274.79 71.4691 275.011 71.6901C275.232 71.9112 275.619 72.0217 276.172 72.0217H277.166V75.6694H274.348C273.188 75.6694 272.282 75.3676 271.636 74.7596C270.986 74.1517 270.663 73.3227 270.663 72.2726V71.112H270.578C269.859 72.8253 268.81 74.1219 267.428 75.0062L267.441 75.0019ZM267.007 71.9325C268.044 71.3798 268.878 70.5423 269.515 69.4242C270.148 68.3061 270.467 66.9329 270.467 65.3003V62.8983H270.382C269.995 63.7018 269.422 64.2928 268.665 64.6796C267.904 65.0665 266.875 65.2578 265.579 65.2578L263.798 65.3003C262.251 65.3301 261.103 65.6872 260.359 66.3759C259.615 67.0647 259.241 67.9362 259.241 68.9863C259.241 70.0916 259.598 70.9972 260.317 71.6986C261.035 72.4044 262.14 72.7572 263.632 72.7572C264.848 72.7572 265.974 72.4809 267.007 71.9282V71.9325Z" fill="white"/>
<path d="M280.741 52.8735H284.886V56.8911H284.971C285.659 55.3988 286.633 54.2467 287.891 53.4304C289.149 52.6142 290.62 52.2061 292.303 52.2061C293.986 52.2061 295.287 52.5717 296.447 53.3029C297.608 54.0341 298.492 55.1182 299.1 56.5552C299.707 57.9922 300.009 59.731 300.009 61.7759V75.6566H295.784V62.2308C295.784 60.0201 295.355 58.396 294.5 57.363C293.646 56.3256 292.456 55.8112 290.938 55.8112C289.863 55.8112 288.873 56.0663 287.976 56.5765C287.079 57.0866 286.352 57.8901 285.799 58.9785C285.247 60.0711 284.971 61.4315 284.971 63.0598V75.6566H280.745V52.865L280.741 52.8735Z" fill="white"/>
<path d="M309.386 74.8317C307.685 73.8369 306.376 72.4339 305.45 70.6271C304.523 68.816 304.064 66.6989 304.064 64.2671C304.064 61.8353 304.532 59.7096 305.471 57.8858C306.41 56.062 307.724 54.659 309.407 53.6812C311.09 52.6991 313.024 52.2102 315.209 52.2102C317.394 52.2102 319.137 52.6439 320.782 53.5154C322.427 54.3869 323.715 55.6411 324.654 57.2863C325.593 58.9316 326.061 60.9 326.061 63.1915V65.5935H308.536C308.621 66.9752 308.935 68.2123 309.488 69.3007C310.04 70.3933 310.818 71.2436 311.83 71.8472C312.837 72.4552 313.989 72.757 315.29 72.757C316.782 72.757 318.057 72.3914 319.124 71.6602C320.187 70.929 320.926 69.9256 321.338 68.6545H325.814C325.508 70.1467 324.875 71.4731 323.91 72.6338C322.945 73.7944 321.713 74.6999 320.225 75.3461C318.733 75.9966 317.088 76.3197 315.294 76.3197C313.058 76.3197 311.09 75.8223 309.39 74.8275L309.386 74.8317ZM320.943 58.8211C320.433 57.839 319.694 57.0865 318.729 56.5636C317.764 56.0407 316.629 55.7771 315.332 55.7771C314.036 55.7771 312.867 56.0535 311.915 56.6061C310.963 57.1588 310.21 57.9198 309.658 58.8849C309.105 59.8542 308.748 60.9553 308.582 62.2009H321.717C321.717 60.9298 321.462 59.8031 320.952 58.8253L320.943 58.8211ZM316.408 44.0476H321.13L316.986 50.2631H313.092L316.408 44.0476Z" fill="white"/>
<path d="M334.325 74.8311C332.624 73.8363 331.315 72.4334 330.389 70.6266C329.462 68.8155 329.003 66.6983 329.003 64.2665C329.003 61.8347 329.47 59.7091 330.41 57.8852C331.349 56.0614 332.663 54.6584 334.346 53.6806C336.029 52.6986 337.963 52.2097 340.148 52.2097C342.333 52.2097 344.076 52.6433 345.721 53.5148C347.366 54.3864 348.654 55.6405 349.593 57.2858C350.532 58.9311 351 60.8994 351 63.1909V65.5929H333.475C333.56 66.9746 333.874 68.2118 334.427 69.3001C334.979 70.3927 335.757 71.243 336.769 71.8467C337.776 72.4546 338.928 72.7565 340.229 72.7565C341.721 72.7565 342.996 72.3909 344.063 71.6596C345.126 70.9284 345.865 69.9251 346.277 68.6539H350.753C350.447 70.1461 349.814 71.4726 348.849 72.6332C347.884 73.7938 346.652 74.6994 345.164 75.3456C343.672 75.996 342.027 76.3191 340.233 76.3191C337.997 76.3191 336.029 75.8217 334.329 74.8269L334.325 74.8311ZM345.886 58.8205C345.376 57.8385 344.637 57.086 343.672 56.5631C342.707 56.0401 341.572 55.7765 340.276 55.7765C338.979 55.7765 337.81 56.0529 336.858 56.6056C335.906 57.1582 335.154 57.9192 334.601 58.8843C334.048 59.8536 333.691 60.9547 333.526 62.2004H346.66C346.66 60.9292 346.405 59.8026 345.895 58.8248L345.886 58.8205Z" fill="white"/>
<path d="M6.91201 28.2962C4.7782 27.0675 3.12046 25.3117 1.93028 23.0287C0.740107 20.7458 0.14502 18.1014 0.14502 15.0957C0.14502 12.09 0.718854 9.41589 1.86652 7.16267C3.01419 4.9052 4.64643 3.17064 6.76749 1.95475C8.8843 0.738865 11.4049 0.13092 14.3336 0.13092C16.9562 0.13092 19.2388 0.645335 21.1814 1.66991C23.1239 2.69449 24.6329 4.08894 25.7125 5.85325C26.7922 7.61757 27.4255 9.57744 27.6168 11.7371H23.1069C22.9964 10.3172 22.5883 9.00351 21.8785 7.80037C21.1686 6.59724 20.1697 5.64068 18.886 4.93071C17.6023 4.22073 16.0849 3.86361 14.3336 3.86361C12.3656 3.86361 10.6568 4.31426 9.20735 5.21555C7.75789 6.11684 6.65272 7.40925 5.88761 9.08854C5.1225 10.7678 4.73994 12.7745 4.73994 15.0957C4.73994 17.417 5.15651 19.3938 5.98963 21.1029C6.82275 22.8119 7.96192 24.1256 9.41138 25.0396C10.8608 25.9579 12.5016 26.4128 14.3294 26.4128C16.0254 26.4128 17.5003 26.043 18.7585 25.3075C20.0167 24.5677 21.0198 23.6409 21.7722 22.5186C22.5246 21.3962 22.9666 20.2228 23.1026 18.99H27.6125C27.366 21.0391 26.6902 22.9055 25.585 24.589C24.4798 26.2683 22.9624 27.616 21.0326 28.6278C19.1071 29.6396 16.8712 30.1455 14.3294 30.1455C11.5154 30.1455 9.04158 29.5291 6.90776 28.3004L6.91201 28.2962Z" fill="white"/>
<path d="M43.152 28.8275C41.7833 29.7033 40.185 30.1412 38.3573 30.1412C36.9078 30.1412 35.5944 29.8691 34.4212 29.3207C33.2438 28.7723 32.3214 27.956 31.654 26.8592C30.9824 25.7666 30.6509 24.4656 30.6509 22.9649C30.6509 20.5884 31.4628 18.8113 33.0907 17.6337C34.7145 16.4603 36.759 15.8694 39.2201 15.8694H42.7864C43.9086 15.8694 44.7459 15.6441 45.307 15.1934C45.8681 14.7428 46.1487 14.0923 46.1487 13.2463C46.1487 12.1537 45.6981 11.3034 44.797 10.704C43.8958 10.1045 42.7482 9.8027 41.3539 9.8027C39.7132 9.8027 38.3955 10.1853 37.3966 10.9506C36.3977 11.7158 35.8579 12.8084 35.7771 14.2326H31.5138C31.6795 11.7456 32.5807 9.79845 34.2214 8.39125C35.8621 6.98405 38.2255 6.27832 41.3157 6.27832C43.3943 6.27832 45.103 6.60567 46.4419 7.26038C47.7809 7.91509 48.7628 8.82063 49.3919 9.9685C50.021 11.1164 50.3355 12.4683 50.3355 14.0285V24.4444C50.3355 24.963 50.446 25.3329 50.6628 25.5497C50.8796 25.7708 51.2622 25.8771 51.8105 25.8771H52.7924V29.4865H50.004C48.8563 29.4865 47.9594 29.1847 47.3176 28.5852C46.6757 27.9858 46.3527 27.1653 46.3527 26.1237V24.9758H46.2719C45.5621 26.6721 44.5207 27.956 43.1562 28.8318L43.152 28.8275ZM42.7227 25.7963C43.7471 25.2479 44.5759 24.4231 45.205 23.3135C45.8341 22.2082 46.1487 20.8477 46.1487 19.2322V16.8557H46.0679C45.6853 17.6507 45.12 18.2374 44.3676 18.62C43.6153 19.0026 42.5994 19.194 41.3114 19.194L39.5474 19.2365C38.0172 19.262 36.8823 19.6191 36.1427 20.3036C35.4031 20.988 35.0375 21.8468 35.0375 22.8884C35.0375 23.981 35.3946 24.878 36.1044 25.5752C36.8143 26.2725 37.9067 26.6211 39.3859 26.6211C40.5888 26.6211 41.7025 26.349 42.7269 25.8006L42.7227 25.7963Z" fill="white"/>
<path d="M56.312 6.93303H60.4096V10.704H60.4904C61.1195 9.42007 61.9951 8.36149 63.113 7.52822C64.2352 6.69495 65.5996 6.27832 67.2106 6.27832C68.8216 6.27832 70.2583 6.71621 71.4315 7.59199C72.6047 8.46777 73.442 9.69641 73.9309 11.2822H74.0116C74.611 9.75168 75.5206 8.53579 76.7363 7.6345C77.9519 6.73322 79.4057 6.28257 81.1017 6.28257C82.6064 6.28257 83.9113 6.63969 85.0165 7.34966C86.1217 8.05964 86.976 9.07997 87.5796 10.4064C88.179 11.7328 88.4807 13.2973 88.4807 15.0999V29.4907H84.2981V15.5505C84.2981 13.6374 83.9028 12.209 83.108 11.2652C82.3131 10.3214 81.2334 9.84946 79.869 9.84946C78.8871 9.84946 77.9817 10.1003 77.1613 10.6062C76.341 11.1121 75.6864 11.8646 75.1933 12.8594C74.7002 13.8585 74.4537 15.0829 74.4537 16.5283V29.4865H70.2711V15.5463C70.2711 13.6332 69.8758 12.2047 69.0809 11.2609C68.286 10.3171 67.2234 9.84521 65.8844 9.84521C64.8728 9.84521 63.9589 10.096 63.1385 10.602C62.3182 11.1079 61.6678 11.8646 61.1917 12.8764C60.7114 13.8883 60.4734 15.1041 60.4734 16.5241V29.4822H56.2908V6.93303H56.312Z" fill="white"/>
<path d="M93.3352 6.93303H97.4753V9.0247C97.4753 10.0918 97.4626 10.8995 97.4328 11.4437H97.5136C98.1682 9.85797 99.2223 8.59956 100.672 7.67277C102.121 6.74172 103.775 6.27832 105.632 6.27832C107.49 6.27832 109.131 6.74172 110.716 7.67277C112.301 8.60381 113.577 9.9685 114.55 11.7711C115.519 13.5737 116.004 15.7206 116.004 18.2076C116.004 20.6947 115.519 22.8416 114.55 24.6442C113.581 26.4468 112.301 27.8157 110.716 28.7425C109.131 29.6736 107.435 30.137 105.632 30.137C103.83 30.137 102.121 29.6736 100.672 28.7425C99.2223 27.8115 98.1724 26.5573 97.5136 24.9715H97.4328C97.4583 25.5455 97.4753 26.366 97.4753 27.4331V37.6831H93.3352V6.93303ZM108.217 25.571C109.284 24.8738 110.108 23.8917 110.699 22.6205C111.286 21.3494 111.579 19.8784 111.579 18.2119C111.579 16.5454 111.286 15.0744 110.699 13.8032C110.112 12.5321 109.284 11.55 108.217 10.8528C107.15 10.1556 105.909 9.80695 104.485 9.80695C103.061 9.80695 101.862 10.1556 100.795 10.8528C99.7281 11.55 98.9078 12.5321 98.3339 13.8032C97.7601 15.0744 97.4711 16.5454 97.4711 18.2119C97.4711 19.8784 97.7601 21.3494 98.3339 22.6205C98.9078 23.8917 99.7281 24.8738 100.795 25.571C101.862 26.2682 103.09 26.6168 104.485 26.6168C105.879 26.6168 107.15 26.2682 108.217 25.571Z" fill="white"/>
<path d="M123.489 29.0572C122.328 28.3345 121.44 27.2589 120.824 25.8389C120.207 24.419 119.901 22.6972 119.901 20.6735V6.93311H124.084V20.2186C124.084 22.4336 124.509 24.0448 125.355 25.0567C126.201 26.0685 127.378 26.5744 128.883 26.5744C129.975 26.5744 130.965 26.3236 131.854 25.8176C132.742 25.3117 133.452 24.5252 133.988 23.4581C134.519 22.3911 134.787 21.0391 134.787 19.3981V6.93311H138.969V29.4866H134.872V25.5073H134.791C134.136 27.0378 133.193 28.1942 131.96 28.9722C130.732 29.7502 129.295 30.1413 127.654 30.1413C126.014 30.1413 124.653 29.7799 123.493 29.0529L123.489 29.0572Z" fill="white"/>
<path d="M147.391 29.1596C145.984 28.5049 144.895 27.5611 144.13 26.3282C143.365 25.0996 142.94 23.6626 142.859 22.0216H147.204C147.284 23.5819 147.786 24.734 148.7 25.4865C149.614 26.239 150.838 26.6131 152.368 26.6131C153.354 26.6131 154.213 26.4643 154.952 26.1624C155.692 25.8606 156.257 25.4184 156.653 24.8318C157.048 24.2451 157.248 23.5691 157.248 22.8039C157.248 21.8218 156.908 21.0608 156.223 20.5294C155.539 19.998 154.489 19.7301 153.065 19.7301H150.604C148.334 19.7301 146.545 19.1562 145.231 18.0083C143.918 16.8605 143.263 15.33 143.263 13.4169C143.263 12.0522 143.62 10.8278 144.33 9.74794C145.04 8.66809 146.06 7.82207 147.386 7.20563C148.712 6.58918 150.289 6.28308 152.121 6.28308C153.954 6.28308 155.628 6.61044 156.98 7.26514C158.332 7.91985 159.365 8.8509 160.074 10.054C160.784 11.2572 161.167 12.6516 161.222 14.2374H156.916C156.835 12.8174 156.398 11.7248 155.603 10.9553C154.808 10.1901 153.647 9.80746 152.117 9.80746C150.749 9.80746 149.665 10.1136 148.857 10.73C148.049 11.3464 147.646 12.184 147.646 13.2511C147.646 14.1821 147.96 14.8793 148.589 15.3427C149.218 15.8061 150.107 16.04 151.254 16.04H153.92C156.406 16.04 158.315 16.6606 159.637 17.9063C160.963 19.1519 161.626 20.742 161.626 22.6848C161.626 24.1345 161.256 25.4184 160.521 26.5408C159.781 27.6632 158.718 28.5432 157.324 29.1852C155.93 29.8271 154.277 30.1502 152.364 30.1502C150.451 30.1502 148.789 29.8229 147.382 29.1681L147.391 29.1596Z" fill="white"/>
<path d="M114.58 75.8603C111.158 67.4341 106.924 57.1245 98.9545 51.9294C84.1114 42.2533 64.3587 54.7097 56.5588 60.5171C55.9637 60.9592 55.3686 61.4056 54.7693 61.8563C48.7079 66.418 42.4382 71.1328 34.7701 71.9958C30.4515 72.4847 26.2731 71.6429 22.2308 70.8352C20.5433 70.495 18.9535 70.1762 17.3425 69.9466C13.772 69.4322 7.24731 69.1814 3.63853 73.2712L0 69.8573C4.87122 64.3391 12.4883 64.1265 18.0226 64.9215C19.7654 65.1723 21.4954 65.521 23.1702 65.8568C27.017 66.6306 30.6555 67.3575 34.2345 66.9579C40.602 66.2437 46.3276 61.9328 51.8704 57.7622C52.474 57.3073 53.0775 56.8524 53.6811 56.406C62.2929 49.995 84.2049 36.3141 101.586 47.644C110.865 53.6937 115.43 64.9513 119.102 73.9982L119.902 75.8773" fill="white"/>
<path d="M308.532 28.4876C307.163 29.3634 305.556 29.8012 303.724 29.8012C302.271 29.8012 300.957 29.5249 299.78 28.9807C298.602 28.4323 297.676 27.6118 297.004 26.5149C296.333 25.4181 295.997 24.1172 295.997 22.6079C295.997 20.2229 296.813 18.4416 298.441 17.264C300.069 16.0864 302.118 15.4954 304.583 15.4954H308.158C309.28 15.4954 310.126 15.2701 310.687 14.8195C311.248 14.3688 311.529 13.7184 311.529 12.8681C311.529 11.7712 311.078 10.921 310.173 10.3215C309.267 9.71782 308.12 9.41598 306.721 9.41598C305.076 9.41598 303.754 9.7986 302.755 10.5681C301.756 11.3333 301.212 12.4302 301.132 13.8544H296.86C297.025 11.3631 297.927 9.40747 299.572 7.99602C301.217 6.58457 303.584 5.87885 306.683 5.87885C308.766 5.87885 310.479 6.2062 311.818 6.86516C313.161 7.52412 314.147 8.42541 314.776 9.57753C315.405 10.7296 315.72 12.0858 315.72 13.6461V24.0874C315.72 24.6103 315.83 24.9802 316.047 25.197C316.268 25.4181 316.651 25.5244 317.199 25.5244H318.185V29.1423H315.392C314.241 29.1423 313.344 28.8404 312.702 28.2367C312.056 27.6331 311.737 26.8125 311.737 25.771V24.6188H311.656C310.942 26.3194 309.901 27.6075 308.532 28.4833V28.4876ZM308.098 25.4436C309.127 24.8952 309.956 24.0662 310.585 22.9566C311.214 21.847 311.533 20.4823 311.533 18.8668V16.4817H311.452C311.07 17.2767 310.5 17.8677 309.748 18.2503C308.995 18.6329 307.975 18.8242 306.687 18.8242L304.919 18.8668C303.384 18.8965 302.25 19.2494 301.51 19.9338C300.77 20.6183 300.4 21.4813 300.4 22.5229C300.4 23.6198 300.758 24.5168 301.467 25.214C302.177 25.9113 303.274 26.2641 304.753 26.2641C305.96 26.2641 307.074 25.992 308.103 25.4436H308.098Z" fill="white"/>
<path d="M321.721 6.5377H325.832V10.3597H325.913C326.486 9.046 327.192 8.07669 328.029 7.46024C328.862 6.8438 330.078 6.53345 331.668 6.53345H333.844V10.1514H331.052C329.271 10.1514 327.97 10.6573 327.145 11.6733C326.325 12.6894 325.913 14.2369 325.913 16.3158V29.1422H321.721V6.5377Z" fill="white"/>
<path d="M335.038 6.53813H350.735V10.156H335.038V6.53813ZM341.035 27.6249C340.02 26.6131 339.514 25.1166 339.514 23.1439V0.373657H343.705V22.8591C343.705 23.7902 343.93 24.4704 344.385 24.8955C344.836 25.3206 345.516 25.5332 346.421 25.5332H350.944V29.1511H345.558C343.556 29.1511 342.051 28.6452 341.04 27.6291L341.035 27.6249Z" fill="white"/>
</svg>
