<?xml version="1.0" encoding="UTF-8"?>
<svg id="Layer_1" data-name="Layer 1" xmlns="http://www.w3.org/2000/svg" version="1.1" viewBox="0 0 1520 192">
  <defs>
    <style>
      .cls-1 {
        fill: #1d1d1b;
        stroke-width: 0px;
      }
    </style>
  </defs>
  <path class="cls-1" d="M124.3,79.6c-.6,18.2-8.2,35.2-21.4,47.6l-.2-.2c-12.9,12.9-29.9,20.1-48.1,20.1h-17v-83.1H0v121h61v-.2c25.3-1.5,49-12,67.3-30l.2.2c20.5-19.3,32.4-45.5,33.4-73.8.5-18.3,8.1-35.2,21.3-47.8l-25.8-27.6c-20.4,19.4-32.1,45.5-33,73.7Z"/>
  <path class="cls-1" d="M278.8,102.1c2.6,0,5.3-.1,7.9-.3l-3.1-37.8c-14.9,1.2-29.4-3.4-40.9-13.2l-24.3,29c17.1,14.5,38.3,22.3,60.4,22.3h0Z"/>
  <path class="cls-1" d="M1520,185.5s0,0,0,0h0s0,0,0,0Z"/>
  <path class="cls-1" d="M330.3,178.8h0s0,0,0,0h0Z"/>
  <path class="cls-1" d="M840.2,44.2c22-.3,42.7,8.1,58.4,23.6l26.3-27.1c-22.9-22.5-53.1-34.7-85.1-34.4-32,.4-62,13.3-84.3,36.4l26.9,26.5c15.3-15.8,35.9-24.7,57.8-24.9Z"/>
  <path class="cls-1" d="M318.7,142.7l11.5,36.1c23.8-7.7,43.3-24.3,54.7-46.7l-33.5-17.3c-6.9,13.4-18.5,23.4-32.7,28Z"/>
  <path class="cls-1" d="M340.1,17.3L306.7,0c-6.9,13.4-18.5,23.3-32.7,27.9l11.5,36.1c23.8-7.7,43.2-24.3,54.7-46.7Z"/>
  <path class="cls-1" d="M285.5,64.1h0s0,0,0,0h0Z"/>
  <path class="cls-1" d="M289.1,101c-6.9,13.4-18.5,23.3-32.7,28-23,7.5-41.9,23.5-53.4,45l33.1,18h0c7.1-13.3,18.9-23,33.2-27.3h0c23.2-8,42.1-24.3,53.3-46.3l-33.5-17.3Z"/>
  <path class="cls-1" d="M933.6,68.8c-17.2,13.8-38.6,20-60.5,17.5l-4.2,37.7c4.6.5,9.2.8,13.7.8,27,0,53-9.1,74.4-26.3l-23.4-29.7Z"/>
  <path class="cls-1" d="M882.7,124.8s0,0,0,0,0,0,0,0h0Z"/>
  <path class="cls-1" d="M341.8,40.6c10.5,10.8,16.2,25,16,40.1l37.6.4c.2-25.2-9.3-49-26.8-67l-26.9,26.6Z"/>
  <path class="cls-1" d="M1436.6,29.6c-65.7-40.8-156.3-24.6-210.7,37.8-16.8,19.2-43.9,39.1-69.6,37-8.2-.7-17.1-2.3-26.5-4-39.7-7.1-94.1-16.9-140.7,44.1l29.8,23.1c32.6-42.8,65.8-36.8,104.2-29.9,9.9,1.8,20.1,3.6,30.1,4.4,33.6,2.8,71.3-15.8,100.9-49.7,42.4-48.6,112.3-61.7,162.7-30.5,31.8,19.7,65.5,69.7,65.5,123.6h37.6c0-68.4-42-130.2-83.4-155.9Z"/>
  <rect class="cls-1" x="431.6" y="142.8" width="162.4" height="37.9"/>
  <path class="cls-1" d="M576.7,95.9h-106.9v37.9h107.8c65.7-.5,119-54.4,119-120.7h-37.6c0,45.7-36.9,82.8-82.2,82.8Z"/>
  <path class="cls-1" d="M739.3,150.6v37.9c66.1,0,119.8-54.2,119.8-120.7h-37.6c0,45.7-36.9,82.8-82.2,82.8Z"/>
</svg>