<svg width="761" height="1055" viewBox="0 0 761 1055" fill="none" xmlns="http://www.w3.org/2000/svg" xmlns:xlink="http://www.w3.org/1999/xlink">
  <path fill="#000" d="M118.462 1382.21C118.462 1381.94 118.462 1381.67 118.462 1381.4L118.462 1381.3M-565.055 309.733L-602.225 309.733C-602.225 353.338 -638.641 388.817 -683.396 388.817C-728.152 388.817 -764.567 353.338 -764.567 309.733L-801.738 309.733C-801.738 340.531 -789.416 369.456 -767.073 391.259C-744.729 413.028 -715.007 425.033 -683.396 425.033C-651.786 425.033 -622.098 413.028 -599.72 391.259C-577.376 369.489 -565.055 340.531 -565.055 309.733ZM-683.499 446.902L-783.032 411.523L-795.766 445.531L-682.95 485.625L-571.507 442.689L-585.167 409.015L-683.499 446.869L-683.499 446.902ZM-483.197 175.941L-375.564 175.941L-375.564 139.325L-482.339 139.325C-527.61 139.325 -564.471 103.444 -564.471 59.304L-602.054 59.304C-602.054 90.4696 -589.595 119.763 -566.977 141.766C-544.565 163.602 -514.842 175.707 -483.197 175.908L-483.197 175.941ZM-294.771 310.703L-256.743 310.703C-256.743 279.203 -269.339 249.575 -292.197 227.271C-315.055 205 -345.464 192.728 -377.83 192.728L-377.83 192.895L-483.232 192.895C-514.877 193.129 -544.633 205.234 -567.011 227.07C-589.629 249.107 -602.088 278.4 -602.088 309.532L-564.506 309.532C-564.506 265.426 -527.678 229.545 -482.374 229.545L-377.83 229.545L-377.83 229.779C-332.044 229.779 -294.771 266.094 -294.771 310.703ZM-352.466 277.598C-384.797 277.598 -415.206 289.87 -438.099 312.141L-411.225 338.324C-395.54 323.042 -374.672 314.615 -352.5 314.615L-352.5 277.564L-352.466 277.598ZM-266.833 354.943C-289.691 332.673 -320.101 320.4 -352.466 320.4L-352.466 357.451C-330.294 357.451 -309.427 365.878 -293.742 381.16L-266.833 354.943ZM37.429 273.886L37.1545 273.886C37.1545 320.4 -1.69766 358.221 -49.4049 358.22L-49.4049 396.843C-1.66337 396.843 37.1545 434.697 37.1545 481.178L38.2185 481.178L38.2185 576.113L14.7766 576.113C-7.73843 576.113 -28.8806 567.586 -44.8059 552.07L-45.0118 552.27C-61.349 537.323 -70.7531 517.058 -71.5082 495.256C-72.5721 464.458 -85.4429 435.834 -107.855 414.232L-107.786 414.165C-125.325 397.077 -147.05 385.574 -170.732 380.558C-150.311 374.806 -131.571 364.072 -116.126 349.025C-91.9983 325.517 -78.7157 294.284 -78.7157 261.079L-118.803 261.079C-118.803 308.128 -158.102 346.416 -206.393 346.416L-206.393 378.017C-237.351 379.956 -266.181 392.63 -288.319 414.198L-288.078 414.432C-309.701 435.867 -322.091 463.99 -323.155 494.186C-323.91 516.022 -333.314 536.253 -349.652 551.2L-349.858 550.999C-365.783 566.515 -386.925 575.042 -409.44 575.042L-432.882 575.042L-432.882 476.964C-430.617 434.295 -394.27 400.287 -349.926 400.287L-349.926 363.236C-382.257 363.236 -412.666 375.509 -435.559 397.779C-457.182 418.846 -469.606 446.467 -470.91 476.028L-471.459 476.028L-471.46 612.595L-401.821 612.595L-401.821 612.361C-372.373 610.622 -344.95 598.785 -323.704 578.587L-323.498 578.788C-299.61 557.052 -285.813 527.592 -284.612 495.791C-283.994 475.058 -275.585 455.697 -260.827 440.916L-259.969 441.752C-243.426 425.635 -221.426 416.773 -198.052 416.773C-174.679 416.773 -152.679 425.635 -136.136 441.753L-135.141 440.783C-119.559 455.697 -110.669 475.56 -110.052 496.894C-108.816 528.695 -95.0186 558.156 -71.165 579.891L-70.9591 579.691C-49.7139 599.888 -22.2565 611.726 7.15725 613.465L7.15725 613.699L76.796 613.699L76.7961 477.132L76.7274 477.132C75.6978 445.799 62.6898 416.472 39.8316 394.201C33.2761 387.815 26.1715 382.23 18.552 377.482C26.1371 372.733 33.2761 367.149 39.8316 360.762C63.6852 337.521 76.7961 306.657 76.7961 273.819L76.6931 273.819C76.6931 227.773 115.168 190.287 162.429 190.287L273.906 190.287L273.906 152.032L161.537 152.032C128.485 152.266 97.4578 164.906 74.0504 187.712C50.437 210.719 37.429 241.282 37.429 273.819M-291.854 713.349C-246.069 713.349 -208.795 749.664 -208.795 794.272L-170.767 794.272C-170.767 762.772 -183.363 733.145 -206.221 710.841C-229.079 688.536 -259.489 676.298 -291.854 676.298L-291.854 713.349ZM-180.857 838.546C-203.716 816.276 -234.125 804.003 -266.49 804.003L-266.49 841.054C-244.318 841.054 -223.451 849.481 -207.766 864.763L-180.857 838.546ZM-325.215 821.96C-309.53 806.678 -288.662 798.252 -266.49 798.252L-266.49 761.201C-298.821 761.201 -329.23 773.473 -352.123 795.744L-325.249 821.927L-325.215 821.96ZM-31.6608 1129.74C0.670233 1129.74 31.0794 1117.47 53.9719 1095.2C76.8302 1072.92 89.4264 1043.3 89.4264 1011.8L89.4264 1012.67L200.903 1012.67C248.164 1012.67 286.639 1050.15 286.639 1096.2L325.903 1096.2C325.903 1063.66 312.895 1033.1 289.282 1010.09C265.874 987.286 234.848 974.645 201.796 974.411L89.4264 974.411L89.4264 1011.8L51.3978 1011.8C51.3978 1056.41 14.1244 1092.72 -31.6608 1092.72L-31.6608 1129.77L-31.6608 1129.74ZM56.4087 1180.8L29.5349 1154.58C13.8498 1169.87 -7.01777 1178.29 -29.1896 1178.29L-29.1897 1215.34C3.1414 1215.34 33.5505 1203.07 56.4431 1180.8M325.937 835.972C325.937 835.804 325.937 835.637 325.937 835.47C325.937 835.303 325.937 835.136 325.937 834.968C325.663 802.499 312.586 772.035 288.973 749.029C282.418 742.675 275.313 737.091 267.694 732.309C275.279 727.56 282.418 721.976 288.973 715.589C312.827 692.382 325.938 661.484 325.938 628.646L286.296 628.646C286.296 675.161 247.444 712.981 199.737 712.981L199.737 713.549C154.123 713.315 117.09 677.1 117.09 632.626L79.0612 632.625C79.0612 664.126 91.6573 693.753 114.516 716.057C137.305 738.228 167.543 750.5 199.702 750.6L199.702 751.57C247.444 751.57 286.262 789.39 286.262 835.905L286.639 835.905C286.09 881.483 247.856 918.434 200.903 918.434L89.4264 918.434L89.4264 956.688L201.796 956.688C234.848 956.454 265.874 943.814 289.282 921.008C312.655 898.236 325.594 868.074 325.869 835.905L325.937 835.972ZM293.435 462.585C293.435 462.585 293.435 462.452 293.435 462.385C293.435 462.318 293.435 462.251 293.435 462.184C293.332 429.48 280.221 398.783 256.47 375.643C249.915 369.256 242.81 363.671 235.191 358.923C242.776 354.174 249.915 348.59 256.47 342.203C280.324 318.963 293.435 288.098 293.435 255.26L253.793 255.26C253.793 301.774 214.941 339.595 167.234 339.595L167.234 378.217C214.975 378.217 253.793 416.071 253.793 462.552L255.406 462.552C255.166 506.993 217.996 543.074 172.348 543.074L172.348 580.125C204.679 580.125 235.088 567.853 257.981 545.582C280.77 523.412 293.332 493.918 293.435 462.585ZM174.75 585.877C152.578 585.877 131.711 577.45 116.026 562.168L89.1518 588.385C112.01 610.656 142.419 622.928 174.785 622.928L174.785 585.877L174.75 585.877ZM260.383 631.188L233.509 604.971C217.824 620.253 196.956 628.68 174.785 628.68L174.785 665.731C207.116 665.731 237.525 653.458 260.417 631.188M731.312 153.571C713.773 136.483 692.013 124.98 668.366 119.964C688.787 114.212 707.527 103.478 722.972 88.4303C747.065 64.9222 760.348 33.6896 760.348 0.484131L720.26 0.484121C720.26 47.5336 680.962 85.7884 632.671 85.7884L632.671 117.389C602.468 119.261 574.29 131.4 552.358 152.032C528.024 174.403 514.021 204.666 512.888 237.236C512.099 259.674 502.454 280.474 485.671 295.822L485.431 295.588C469.094 311.505 447.334 320.3 424.235 320.3L400.141 320.3L400.141 218.811C400.141 185.973 387.03 155.075 363.177 131.868C356.656 125.515 349.517 119.93 341.897 115.148C349.482 110.4 356.621 104.815 363.177 98.4285C387.03 75.188 400.141 44.3234 400.141 11.4857L360.5 11.4857C360.5 58.0001 321.647 95.8203 273.94 95.8203L273.94 96.1212L162.463 96.1212C115.202 96.1212 76.7275 58.6354 76.7275 12.5892L37.4635 12.5892C37.4635 45.1259 50.4714 75.6895 74.0848 98.696C97.4922 121.502 128.519 134.142 161.571 134.376L273.94 134.376L273.94 134.443C321.613 134.443 360.397 172.196 360.5 218.61L360.5 358.889L432.026 358.889L432.026 358.655C462.264 356.85 490.476 344.711 512.305 323.978L512.511 324.179C537.051 301.841 551.226 271.579 552.461 238.942C553.113 216.805 562.449 196.206 578.752 180.79L579.129 181.158C613.279 147.886 668.846 147.886 702.962 181.158L731.312 153.537L731.312 153.571ZM502.557 1183.48C526.479 1160.17 539.659 1129.14 539.659 1096.16L540.242 1096.16C540.242 1049.12 579.541 1010.83 627.832 1010.83L627.832 979.227C658.79 977.287 687.62 964.614 709.758 943.045L681.408 915.424C664.865 931.542 642.864 940.403 619.491 940.403C596.118 940.403 574.118 931.542 557.575 915.424L529.225 943.045C546.764 960.133 568.524 971.636 592.171 976.652C571.75 982.404 553.01 993.138 537.565 1008.19C513.437 1031.66 500.155 1062.93 500.155 1096.13L499.846 1096.13C499.846 1142.81 460.856 1180.83 412.909 1180.83C364.961 1180.83 325.972 1142.85 325.972 1096.13L286.158 1096.13C286.158 1129.1 299.338 1160.1 323.295 1183.44C347.217 1206.75 379.033 1219.62 412.909 1219.62C446.784 1219.62 478.566 1206.78 502.523 1183.44M292.577 1241.59L413.389 1284.56L532.76 1238.58L518.139 1202.54L412.84 1243.1L306.202 1205.18L292.577 1241.59ZM-86.9189 1182.27L-124.947 1182.27C-124.947 1213.77 -112.351 1243.4 -89.493 1265.7C-66.6347 1287.97 -36.2257 1300.25 -3.86033 1300.25L-3.86032 1263.2C-49.6455 1263.2 -86.9189 1226.88 -86.9189 1182.27ZM-732.442 1174.48L-732.477 1174.48L-732.477 1311.05L-662.838 1311.05L-662.838 1310.81C-633.424 1309.07 -605.967 1297.24 -584.721 1277.04L-584.515 1277.24C-560.628 1255.5 -546.83 1226.04 -545.629 1194.24C-544.977 1172.34 -535.607 1151.98 -519.27 1136.93L-519.51 1136.66C-503.894 1122.72 -483.781 1115.06 -462.467 1115.06C-439.884 1115.06 -418.673 1123.62 -402.679 1139.17L-402.233 1138.73C-385.793 1153.85 -365.783 1164.08 -344.126 1168.66C-363.827 1174.21 -381.914 1184.58 -396.844 1199.09C-420.114 1221.76 -432.951 1251.93 -432.951 1283.99L-394.236 1283.99C-394.236 1238.58 -356.31 1201.63 -309.701 1201.63L-309.701 1171.14C-279.807 1169.26 -251.972 1157.02 -230.624 1136.23L-230.761 1136.09C-215.213 1122.48 -195.341 1115.02 -174.302 1115.02C-151.718 1115.02 -130.507 1123.59 -114.514 1139.13L-114.033 1138.67C-91.2434 1160.47 -61.1776 1172.47 -29.2241 1172.47L-29.2241 1135.42C-51.0184 1135.42 -71.5427 1127.26 -87.1591 1112.48C-104.08 1096 -125.085 1084.86 -147.943 1080.05C-128.208 1074.5 -110.155 1064.13 -95.2247 1049.62C-71.9546 1026.94 -59.1182 996.782 -59.1182 964.714L-97.8331 964.714C-97.8331 1010.12 -135.759 1047.08 -182.368 1047.08L-182.368 1077.57C-212.262 1079.44 -240.097 1091.68 -261.445 1112.48L-261.308 1112.62C-276.855 1126.23 -296.728 1133.68 -317.767 1133.68C-340.351 1133.68 -361.596 1125.12 -377.555 1109.57L-378.002 1110.01C-394.442 1094.89 -414.451 1084.66 -436.108 1080.08C-416.408 1074.53 -398.32 1064.16 -383.39 1049.65C-360.12 1026.98 -347.283 996.816 -347.283 964.747L-347.112 964.747C-347.112 920.139 -309.838 883.823 -264.053 883.823L-264.053 846.773C-296.384 846.772 -326.793 859.045 -349.686 881.316C-372.544 903.586 -385.14 933.214 -385.14 964.747L-385.964 964.747C-385.964 1010.16 -423.89 1047.11 -470.499 1047.11L-470.499 1077.61C-500.393 1079.48 -528.228 1091.72 -549.576 1112.52L-549.164 1112.92C-570.718 1134.35 -583.074 1162.44 -584.138 1192.57C-584.893 1214.41 -594.297 1234.64 -610.634 1249.59L-610.84 1249.38C-626.766 1264.9 -647.908 1273.43 -670.423 1273.43L-693.865 1273.43L-693.865 1174.45L-694.379 1174.45C-694.002 1130.14 -656.9 1094.19 -611.321 1094.19L-611.321 1057.14C-643.652 1057.14 -674.061 1069.41 -696.954 1091.68C-719.674 1113.82 -732.236 1143.18 -732.408 1174.41M-555.067 1075.13L-528.194 1048.91C-551.052 1026.64 -581.461 1014.37 -613.826 1014.37L-613.826 1051.42C-591.654 1051.42 -570.787 1059.85 -555.102 1075.13M-699.425 1006.15L-672.551 1032.33C-656.866 1017.05 -635.998 1008.62 -613.826 1008.62L-613.826 971.569C-646.157 971.569 -676.566 983.841 -699.459 1006.11M-845.464 687.031L-952.238 687.031L-952.238 723.648L-845.464 723.648C-800.193 723.648 -763.332 759.528 -763.332 803.635L-762.748 803.635C-762.68 835.737 -749.843 865.9 -726.539 888.639C-720.121 894.892 -713.153 900.343 -705.705 905.024C-713.153 909.672 -720.121 915.156 -726.539 921.376C-749.878 944.115 -762.748 974.378 -762.748 1006.55L-723.93 1006.55C-723.93 961.002 -685.868 923.917 -639.121 923.917L-639.121 923.717C-593.336 923.717 -556.097 960.032 -556.097 1004.64L-518.069 1004.64C-518.069 973.141 -530.665 943.513 -553.523 921.209C-576.381 898.938 -606.756 886.666 -639.087 886.666L-639.087 886.064C-685.867 886.064 -723.896 848.979 -723.896 803.435L-725.715 803.435C-725.784 772.369 -738.208 743.143 -760.792 721.173C-783.204 699.337 -812.926 687.232 -844.571 687.031L-845.395 687.031L-845.464 687.031ZM-952.238 633.461L-952.238 670.078L-844.605 670.078C-812.961 669.844 -783.204 657.738 -760.826 635.902C-738.208 613.866 -725.749 584.573 -725.749 553.44L-763.332 553.44C-763.332 597.547 -800.159 633.428 -845.464 633.428L-952.238 633.428L-952.238 633.461Z" />
</svg>
