<?xml version="1.0" encoding="UTF-8"?>
<svg id="Calque_1" xmlns="http://www.w3.org/2000/svg" viewBox="0 0 728.56 587.81">
  <path
    
    d="m455.49,587.81v-.39M164.71,131.56h-15.81c0,18.55-15.49,33.64-34.53,33.64s-34.53-15.09-34.53-33.64h-15.81c0,13.1,5.24,25.41,14.75,34.68,9.51,9.26,22.15,14.37,35.6,14.37s26.08-5.11,35.6-14.37c9.51-9.26,14.75-21.58,14.75-34.68Zm-50.39,58.35l-42.34-15.05-5.42,14.47,47.99,17.06,47.41-18.27-5.81-14.33-41.83,16.1h0Zm85.21-115.27h45.79v-15.58h-45.42c-19.26,0-34.94-15.26-34.94-34.04h-15.99c0,13.26,5.3,25.72,14.92,35.08,9.53,9.29,22.18,14.44,35.64,14.52h0Zm..."
    fill="none"
    stroke="#ffffff"
    stroke-width="2"
  />
</svg>
